<svg width="500" height="373" viewBox="0 0 500 373" fill="none" xmlns="http://www.w3.org/2000/svg">
<g clip-path="url(#clip0_571_18846)">
<mask id="mask0_571_18846" style="mask-type:luminance" maskUnits="userSpaceOnUse" x="0" y="0" width="500" height="373">
<path d="M500 0H0V373H500V0Z" fill="white"/>
</mask>
<g mask="url(#mask0_571_18846)">
<g opacity="0.917411">
<mask id="mask1_571_18846" style="mask-type:luminance" maskUnits="userSpaceOnUse" x="0" y="327" width="500" height="1">
<g opacity="0.917411">
<path fill-rule="evenodd" clip-rule="evenodd" d="M0 327H500V328H0V327Z" fill="white"/>
</g>
</mask>
<g mask="url(#mask1_571_18846)">
<path fill-rule="evenodd" clip-rule="evenodd" d="M0 327.625H500V327.375H0V327.625Z" fill="#E4E4DE"/>
</g>
<path fill-rule="evenodd" clip-rule="evenodd" d="M397 343.625H450V343.375H397V343.625Z" fill="#E4E4DE"/>
<path fill-rule="evenodd" clip-rule="evenodd" d="M273 340.625H332V340.375H273V340.625Z" fill="#E4E4DE"/>
<path fill-rule="evenodd" clip-rule="evenodd" d="M380 339.625H399V339.375H380V339.625Z" fill="#E4E4DE"/>
<path fill-rule="evenodd" clip-rule="evenodd" d="M100 336.625H143V336.375H100V336.625Z" fill="#D0D9E6"/>
<path fill-rule="evenodd" clip-rule="evenodd" d="M79 336.625H94V336.375H79V336.625Z" fill="#D0D9E6"/>
<path fill-rule="evenodd" clip-rule="evenodd" d="M131 340.625H185V340.375H131V340.625Z" fill="#D0D9E6"/>
<path fill-rule="evenodd" clip-rule="evenodd" d="M43.708 0.25C40.698 0.25 38.25 2.699 38.25 5.708V277.139C38.25 280.149 40.698 282.597 43.708 282.597H236.807C239.815 282.597 242.264 280.149 242.264 277.139V5.708C242.264 2.699 239.815 0.25 236.807 0.25H43.708ZM236.807 282.847H43.708C40.56 282.847 38 280.287 38 277.139V5.708C38 2.561 40.56 0 43.708 0H236.807C239.953 0 242.514 2.561 242.514 5.708V277.139C242.514 280.287 239.953 282.847 236.807 282.847Z" fill="#D0D9E6"/>
<path fill-rule="evenodd" clip-rule="evenodd" d="M260.707 0.25C257.698 0.25 255.25 2.699 255.25 5.708V277.139C255.25 280.149 257.698 282.597 260.707 282.597H453.806C456.815 282.597 459.264 280.149 459.264 277.139V5.708C459.264 2.699 456.815 0.25 453.806 0.25H260.707ZM453.806 282.847H260.707C257.56 282.847 255 280.287 255 277.139V5.708C255 2.561 257.56 0 260.707 0H453.806C456.953 0 459.514 2.561 459.514 5.708V277.139C459.514 280.287 456.953 282.847 453.806 282.847Z" fill="#D0D9E6"/>
<path fill-rule="evenodd" clip-rule="evenodd" d="M117.873 267H57.1272C54.307 267 52 264.778 52 262.063V259.937C52 257.221 54.307 255 57.1272 255H117.873C120.692 255 123 257.221 123 259.937V262.063C123 264.778 120.692 267 117.873 267Z" fill="#E3ECFA"/>
<path fill-rule="evenodd" clip-rule="evenodd" d="M71 267H61.1752L50 327H59.8248L71 267Z" fill="#DAE2F0"/>
<path fill-rule="evenodd" clip-rule="evenodd" d="M92 267H81.746L76 327H86.254L92 267Z" fill="#DAE2F0"/>
<path fill-rule="evenodd" clip-rule="evenodd" d="M103 267H112.825L124 327H114.176L103 267Z" fill="#DAE2F0"/>
<path fill-rule="evenodd" clip-rule="evenodd" d="M197 220H431V16H197V220Z" fill="#DAE2F0"/>
<path fill-rule="evenodd" clip-rule="evenodd" d="M200 220H437V16H200V220Z" fill="#E3ECFA"/>
<path fill-rule="evenodd" clip-rule="evenodd" d="M197 223H431V219H197V223Z" fill="#DDDED8"/>
<path fill-rule="evenodd" clip-rule="evenodd" d="M204 223H441V219H204V223Z" fill="#DAE2F0"/>
<path fill-rule="evenodd" clip-rule="evenodd" d="M210 213H428V22H210V213Z" fill="#FCFEFF"/>
<path fill-rule="evenodd" clip-rule="evenodd" d="M280 213L320.904 22H348L307.096 213H280Z" fill="#FFFFFE"/>
<path fill-rule="evenodd" clip-rule="evenodd" d="M248 213L288.903 22H316L275.097 213H248Z" fill="#FFFFFE"/>
<path fill-rule="evenodd" clip-rule="evenodd" d="M215 22.5158V200.484C215 200.769 215.404 201 215.903 201H217.098C217.597 201 218 200.769 218 200.484V22.5158C218 22.2305 217.597 22 217.098 22H215.903C215.404 22 215 22.2305 215 22.5158Z" fill="#EAEAE5"/>
<path fill-rule="evenodd" clip-rule="evenodd" d="M350 213L391.327 22H402L360.673 213H350Z" fill="#FFFFFE"/>
<path fill-rule="evenodd" clip-rule="evenodd" d="M427 213H428V22H427V213Z" fill="#DAE2F0"/>
<path fill-rule="evenodd" clip-rule="evenodd" d="M440 29H438V24H439.222L440 29Z" fill="#E3ECFA"/>
<path fill-rule="evenodd" clip-rule="evenodd" d="M428 29H438V24H428V29Z" fill="#DAE2F0"/>
<path fill-rule="evenodd" clip-rule="evenodd" d="M426.981 29.461H399.949L401.123 24H426.981V29.461ZM389.348 29.461H378.266L378 24H390.522L389.348 29.461Z" fill="#E3ECFA"/>
<path fill-rule="evenodd" clip-rule="evenodd" d="M399.804 29H389L390.196 24H401L399.804 29Z" fill="#EBF3FF"/>
<path fill-rule="evenodd" clip-rule="evenodd" d="M427 29H428V24H427V29Z" fill="#CCD3E0"/>
<path fill-rule="evenodd" clip-rule="evenodd" d="M440 48H438V43H439.222L440 48Z" fill="#E3ECFA"/>
<path fill-rule="evenodd" clip-rule="evenodd" d="M428 48H438V43H428V48Z" fill="#DAE2F0"/>
<path fill-rule="evenodd" clip-rule="evenodd" d="M427.069 48.461H396.008L397.182 43H427.069V48.461ZM385.408 48.461H379.266L379 43H386.582L385.408 48.461Z" fill="#E3ECFA"/>
<path fill-rule="evenodd" clip-rule="evenodd" d="M395.803 48H385L386.197 43H397L395.803 48Z" fill="#EBF3FF"/>
<path fill-rule="evenodd" clip-rule="evenodd" d="M427 48H428V43H427V48Z" fill="#CCD3E0"/>
<path fill-rule="evenodd" clip-rule="evenodd" d="M440 67H438V62H439.222L440 67Z" fill="#E3ECFA"/>
<path fill-rule="evenodd" clip-rule="evenodd" d="M428 67H438V62H428V67Z" fill="#DAE2F0"/>
<path fill-rule="evenodd" clip-rule="evenodd" d="M427.156 67.461H392.067L393.241 62H427.156V67.461ZM381.466 67.461H380.266L380 62H382.641L381.466 67.461Z" fill="#E3ECFA"/>
<path fill-rule="evenodd" clip-rule="evenodd" d="M391.804 67H381L382.197 62H393L391.804 67Z" fill="#EBF3FF"/>
<path fill-rule="evenodd" clip-rule="evenodd" d="M427 67H428V62H427V67Z" fill="#CCD3E0"/>
<path fill-rule="evenodd" clip-rule="evenodd" d="M440 86H438V81H439.222L440 86Z" fill="#E3ECFA"/>
<path fill-rule="evenodd" clip-rule="evenodd" d="M428 86H438V81H428V86Z" fill="#DAE2F0"/>
<path fill-rule="evenodd" clip-rule="evenodd" d="M427 86H388L389.171 81H427V86Z" fill="#E3ECFA"/>
<path fill-rule="evenodd" clip-rule="evenodd" d="M387.868 86H381.256L381 81H389L387.868 86Z" fill="#EBF3FF"/>
<path fill-rule="evenodd" clip-rule="evenodd" d="M427 86H428V81H427V86Z" fill="#CCD3E0"/>
<path fill-rule="evenodd" clip-rule="evenodd" d="M440 104H438V99H439.222L440 104Z" fill="#E3ECFA"/>
<path fill-rule="evenodd" clip-rule="evenodd" d="M428 104H438V99H428V104Z" fill="#DAE2F0"/>
<path fill-rule="evenodd" clip-rule="evenodd" d="M427 104H384L385.17 99H427V104Z" fill="#E3ECFA"/>
<path fill-rule="evenodd" clip-rule="evenodd" d="M382.952 104H381.237L381 99H384L382.952 104Z" fill="#EBF3FF"/>
<path fill-rule="evenodd" clip-rule="evenodd" d="M427 104H428V99H427V104Z" fill="#CCD3E0"/>
<path fill-rule="evenodd" clip-rule="evenodd" d="M440 123H438V118H439.222L440 123Z" fill="#E3ECFA"/>
<path fill-rule="evenodd" clip-rule="evenodd" d="M428 123H438V118H428V123Z" fill="#DAE2F0"/>
<path fill-rule="evenodd" clip-rule="evenodd" d="M426 123H384.114C383.618 122.229 382.932 121.193 382.107 120.027L382 118H426V123Z" fill="#E3ECFA"/>
<path fill-rule="evenodd" clip-rule="evenodd" d="M427 123H428V118H427V123Z" fill="#CCD3E0"/>
<path fill-rule="evenodd" clip-rule="evenodd" d="M440 39H438V34H439.222L440 39Z" fill="#E3ECFA"/>
<path fill-rule="evenodd" clip-rule="evenodd" d="M428 39H438V34H428V39Z" fill="#DAE2F0"/>
<path fill-rule="evenodd" clip-rule="evenodd" d="M426.525 39.461H397.479L398.653 34H426.525V39.461ZM386.878 39.461H378.266L378 34H388.052L386.878 39.461Z" fill="#E3ECFA"/>
<path fill-rule="evenodd" clip-rule="evenodd" d="M397.804 39H387L388.196 34H399L397.804 39Z" fill="#EBF3FF"/>
<path fill-rule="evenodd" clip-rule="evenodd" d="M427 39H428V34H427V39Z" fill="#CCD3E0"/>
<path fill-rule="evenodd" clip-rule="evenodd" d="M440 58H438V53H439.222L440 58Z" fill="#E3ECFA"/>
<path fill-rule="evenodd" clip-rule="evenodd" d="M428 58H438V53H428V58Z" fill="#DAE2F0"/>
<path fill-rule="evenodd" clip-rule="evenodd" d="M426.612 58.461H393.537L394.711 53H426.612V58.461ZM382.936 58.461H379.265L379 53H384.111L382.936 58.461Z" fill="#E3ECFA"/>
<path fill-rule="evenodd" clip-rule="evenodd" d="M393.804 58H383L384.197 53H395L393.804 58Z" fill="#EBF3FF"/>
<path fill-rule="evenodd" clip-rule="evenodd" d="M427 58H428V53H427V58Z" fill="#CCD3E0"/>
<path fill-rule="evenodd" clip-rule="evenodd" d="M440 76H438V71H439.222L440 76Z" fill="#E3ECFA"/>
<path fill-rule="evenodd" clip-rule="evenodd" d="M428 76H438V71H428V76Z" fill="#DAE2F0"/>
<path fill-rule="evenodd" clip-rule="evenodd" d="M426.7 76.461H389.597L390.771 71H426.7V76.461ZM380.031 71.646L380 71H380.17L380.031 71.646Z" fill="#E3ECFA"/>
<path fill-rule="evenodd" clip-rule="evenodd" d="M389.798 76H380.241L380 71.5915L380.142 71H391L389.798 76Z" fill="#EBF3FF"/>
<path fill-rule="evenodd" clip-rule="evenodd" d="M427 76H428V71H427V76Z" fill="#CCD3E0"/>
<path fill-rule="evenodd" clip-rule="evenodd" d="M440 95H438V90H439.222L440 95Z" fill="#E3ECFA"/>
<path fill-rule="evenodd" clip-rule="evenodd" d="M428 95H438V90H428V95Z" fill="#DAE2F0"/>
<path fill-rule="evenodd" clip-rule="evenodd" d="M427 95H386L387.17 90H427V95Z" fill="#E3ECFA"/>
<path fill-rule="evenodd" clip-rule="evenodd" d="M385.792 95H381.274L381 90H387L385.792 95Z" fill="#EBF3FF"/>
<path fill-rule="evenodd" clip-rule="evenodd" d="M427 95H428V90H427V95Z" fill="#CCD3E0"/>
<path fill-rule="evenodd" clip-rule="evenodd" d="M440 114H438V109H439.222L440 114Z" fill="#E3ECFA"/>
<path fill-rule="evenodd" clip-rule="evenodd" d="M428 114H438V109H428V114Z" fill="#DAE2F0"/>
<path fill-rule="evenodd" clip-rule="evenodd" d="M427 114H382.103L382 112.09L382.731 109H427V114Z" fill="#E3ECFA"/>
<path fill-rule="evenodd" clip-rule="evenodd" d="M382.219 112L382.055 109H382.945L382.219 112Z" fill="#E9E9E4"/>
<path fill-rule="evenodd" clip-rule="evenodd" d="M427 114H428V109H427V114Z" fill="#CCD3E0"/>
<path fill-rule="evenodd" clip-rule="evenodd" d="M440 133H438V128H439.222L440 133Z" fill="#E3ECFA"/>
<path fill-rule="evenodd" clip-rule="evenodd" d="M428 133H438V128H428V133Z" fill="#DAE2F0"/>
<path fill-rule="evenodd" clip-rule="evenodd" d="M426 133H387.041C386.659 132.309 386.265 131.628 385.862 130.953C385.273 129.942 384.647 128.962 384 128H426V133Z" fill="#E3ECFA"/>
<path fill-rule="evenodd" clip-rule="evenodd" d="M427 133H428V128H427V133Z" fill="#CCD3E0"/>
<path fill-rule="evenodd" clip-rule="evenodd" d="M400 328H431V235H400V328Z" fill="#DDDED8"/>
<path fill-rule="evenodd" clip-rule="evenodd" d="M411.962 328H431V317H392L411.962 328Z" fill="#E3ECFA"/>
<path fill-rule="evenodd" clip-rule="evenodd" d="M307 328H338V235H307V328Z" fill="#DAE2F0"/>
<path fill-rule="evenodd" clip-rule="evenodd" d="M322 326H431V235H322V326Z" fill="#E3ECFA"/>
<path fill-rule="evenodd" clip-rule="evenodd" d="M341.038 328H322V317H361L341.038 328Z" fill="#E3ECFA"/>
<path fill-rule="evenodd" clip-rule="evenodd" d="M336 292H416V245H336V292Z" fill="#FCFEFF"/>
<path fill-rule="evenodd" clip-rule="evenodd" d="M336 319H416V297H336V319Z" fill="#FCFEFF"/>
<path fill-rule="evenodd" clip-rule="evenodd" d="M382.793 247H368.207C365.884 247 364 245.21 364 243H387C387 245.21 385.116 247 382.793 247Z" fill="#E4E4DE"/>
<path fill-rule="evenodd" clip-rule="evenodd" d="M382.793 299H368.207C365.884 299 364 297.209 364 295H387C387 297.209 385.117 299 382.793 299Z" fill="#E3ECFA"/>
<path fill-rule="evenodd" clip-rule="evenodd" d="M282 328H313V235H282V328Z" fill="#E3ECFA"/>
<path fill-rule="evenodd" clip-rule="evenodd" d="M294.962 328H314V317H275L294.962 328Z" fill="#E3ECFA"/>
<path fill-rule="evenodd" clip-rule="evenodd" d="M190 328H221V235H190V328Z" fill="#DAE2F0"/>
<path fill-rule="evenodd" clip-rule="evenodd" d="M204 326H313V235H204V326Z" fill="#E3ECFA"/>
<path fill-rule="evenodd" clip-rule="evenodd" d="M223.039 328H204V317H243L223.039 328Z" fill="#E3ECFA"/>
<path fill-rule="evenodd" clip-rule="evenodd" d="M219 292H299V245H219V292Z" fill="#FCFEFF"/>
<path fill-rule="evenodd" clip-rule="evenodd" d="M219 319H299V297H219V319Z" fill="#FCFEFF"/>
<path fill-rule="evenodd" clip-rule="evenodd" d="M265.793 247H251.207C248.883 247 247 245.21 247 243H270C270 245.21 268.117 247 265.793 247Z" fill="#E4E4DE"/>
<path fill-rule="evenodd" clip-rule="evenodd" d="M265.793 299H251.207C248.883 299 247 297.209 247 295H270C270 297.209 268.117 299 265.793 299Z" fill="#E3ECFA"/>
<path fill-rule="evenodd" clip-rule="evenodd" d="M204 235H430V231H204V235Z" fill="#DAE2F0"/>
<path fill-rule="evenodd" clip-rule="evenodd" d="M190 235H205V231H190V235Z" fill="#D4D5CF"/>
<path fill-rule="evenodd" clip-rule="evenodd" d="M84.6786 240.721C83.2324 204.199 81.6897 167.883 84.8479 149.564L90 146C90 146 88.8707 149.415 88.2789 205.372C87.8665 244.267 87.3855 242.154 87.3424 240.041C87.3229 239.113 87.3886 238.186 87.5804 240.721H84.6786Z" fill="#DDDED8"/>
<path fill-rule="evenodd" clip-rule="evenodd" d="M92.5274 110.729C100.223 90.5542 118.153 71.0725 137.633 63.1035C145.281 59.9744 134.262 128.776 106.533 133.211C92.9923 135.376 88.7767 170.246 86.4936 187C85.719 154.048 84.8329 130.905 92.5274 110.729Z" fill="#DDDED8"/>
<path fill-rule="evenodd" clip-rule="evenodd" d="M90.4442 161.604C95.8516 153.025 104.693 141.012 117.61 141C132.252 140.987 119.439 165.114 102.228 172.82C93.824 176.583 86.8187 188.526 85 196C85.1511 180.852 85.0358 170.183 90.4442 161.604Z" fill="#DDDED8"/>
<path fill-rule="evenodd" clip-rule="evenodd" d="M77.5085 136.292C68.0788 119.581 47.0618 102.776 24.686 95.1309C15.9013 92.1288 15.0349 141.631 62.3988 153.477C77.6959 157.302 83.8285 184.384 87 198C86.7358 171.555 86.9372 153.003 77.5085 136.292Z" fill="#DAE2F0"/>
<path fill-rule="evenodd" clip-rule="evenodd" d="M83.4865 175.934C77.4192 165.318 60.9252 160.128 46.092 161.12C40.2672 161.508 39.631 183.299 72.0262 191.714C81.8519 194.266 85.8166 211.35 87.8569 220C87.6868 203.199 89.5539 186.552 83.4865 175.934Z" fill="#DAE2F0"/>
<path fill-rule="evenodd" clip-rule="evenodd" d="M83.1369 119.14C78.4414 104.138 64.6012 90.692 51.8983 85.1338C46.9112 82.9517 45.378 107.828 72.6406 132.182C80.9094 139.57 83.5167 161.09 84.8644 172C85.4827 152.522 87.8325 134.141 83.1369 119.14Z" fill="#DAE2F0"/>
<path fill-rule="evenodd" clip-rule="evenodd" d="M86.5 255C76.5025 255 68.2403 254.271 67.6656 240.748L66 223H107L105.334 240.748C104.761 254.271 96.4985 255 86.5 255Z" fill="#E3ECFA"/>
<path fill-rule="evenodd" clip-rule="evenodd" d="M105.835 230H65.1648L64 222H107L105.835 230Z" fill="#E3ECFA"/>
<path opacity="0.601028" fill-rule="evenodd" clip-rule="evenodd" d="M444 361.501C444 367.852 357.144 373 250 373C142.857 373 56 367.852 56 361.501C56 355.149 142.857 350 250 350C357.144 350 444 355.149 444 361.501Z" fill="#E3ECFA"/>
<path fill-rule="evenodd" clip-rule="evenodd" d="M72.9904 63L72 43.0486L73.0096 43L74 62.9514L72.9904 63Z" fill="#3F8CFF"/>
<path fill-rule="evenodd" clip-rule="evenodd" d="M73.3252 80L73 70.0483L73.6748 70L74 79.9507L73.3252 80Z" fill="#3F8CFF"/>
<path fill-rule="evenodd" clip-rule="evenodd" d="M86.5239 247C85.579 247 84.801 246.257 84.755 245.311L74.0041 23.8621C73.9551 22.8494 74.7611 22 75.7729 22H375.477C376.421 22 377.199 22.7432 377.245 23.6898L387.996 245.139C388.045 246.152 387.239 247 386.227 247H86.5239Z" fill="#3F8CFF"/>
<path fill-rule="evenodd" clip-rule="evenodd" d="M366.764 243.367H90.1831C89.2371 243.367 88.4581 242.625 88.4131 241.681L78.0021 27.859C77.9531 26.848 78.7601 26 79.7731 26H372.583C373.529 26 374.308 26.742 374.354 27.687L378.614 115.172C376.533 112.555 374.201 110.113 371.958 108.804C370.359 107.747 368.465 107.085 366.405 106.972C366.264 106.964 366.124 106.957 365.983 106.95C362.345 103.437 363.062 96.145 364.161 90.881L353.125 97.034C353.963 100.565 354.058 104.842 351.181 106.838C350.631 106.87 350.11 106.907 349.623 106.951C347.816 107.115 346.041 107.376 344.459 107.655C344.06 107.726 343.668 107.819 343.286 107.934C341.733 108.366 340.016 109.235 338.154 110.637C330.511 116.393 324.836 128.587 324.836 128.587L326.648 129.581C324.965 131.435 323.216 133.247 321.407 135.026C319.426 136.963 317.441 138.802 315.285 140.818C315.227 140.824 315.167 140.83 315.103 140.834C315.033 140.838 314.96 140.84 314.884 140.84C314.414 140.84 313.834 140.764 313.209 140.605C312.193 140.353 311.076 139.936 309.94 139.412C310.005 138.166 310.062 136.926 310.11 135.705L319.24 135.406C319.769 130.497 319.045 122.322 317.821 113.854C316.776 104.985 314.986 94.886 313.08 84.597L303.971 85.175L301.714 38.812C301.689 38.324 301.261 37.948 300.801 37.948C300.789 37.948 300.776 37.949 300.763 37.949C300.263 37.974 299.877 38.399 299.901 38.899L302.16 85.29L264.835 87.661C264.95 88.166 265.064 88.671 265.177 89.174H265.176C265.178 89.182 265.18 89.19 265.182 89.199C265.361 89.997 265.537 90.793 265.711 91.586C267.162 98.288 268.283 104.824 269.094 111.073L263.009 110.12C263.106 128.098 261.173 144.556 258.027 157.49L306.115 166.508L309.233 230.556C309.257 231.041 309.658 231.419 310.138 231.419L310.183 231.418C310.683 231.394 311.07 230.968 311.046 230.468L307.66 160.937C308.334 157.429 308.867 153.226 309.273 148.795C309.595 148.943 309.925 149.085 310.264 149.222C311.499 149.71 312.871 150.12 314.441 150.3C314.877 150.351 315.334 150.379 315.805 150.379C317.017 150.379 318.324 150.192 319.614 149.728L320.287 149.485L321.11 148.808C323.429 146.899 326.053 144.817 328.485 142.634C330.616 140.751 332.699 138.781 334.699 136.71C334.712 137.792 334.735 138.913 334.769 140.077C334.782 140.63 334.802 141.2 334.825 141.784C335.11 149.631 335.858 159.284 337.307 171.14H344.78L342.209 179.771L347.579 181.37C347.557 181.517 347.534 181.664 347.512 181.811L353.296 183.072L353.573 183.155C356.716 197.592 362.015 221.887 365.587 238.049C366.005 239.943 366.4 241.726 366.764 243.367ZM160.008 209.112L161.052 230.556C161.077 231.041 161.477 231.419 161.958 231.419L162.003 231.418C162.503 231.394 162.889 230.968 162.865 230.468L161.816 208.928L187.162 206.353C187.034 195.056 181.224 168.82 177.779 158.987L159.491 161.16L157.924 128.986L163.612 128.68C161.054 111.674 159.194 95.337 158.65 80.259L155.558 80.378L153.534 38.812C153.509 38.324 153.089 37.948 152.622 37.948C152.609 37.948 152.597 37.949 152.584 37.949C152.084 37.974 151.697 38.399 151.721 38.899L153.744 80.448L111.468 82.08C111.364 95.911 112.535 114.587 115.319 131.283L156.112 129.084L157.684 161.375L131.062 164.538C136.03 182.056 136.238 197.933 137.616 211.388L160.008 209.112ZM175.885 95.373L175.883 143.501L224.428 146.43L224.43 98.302L175.885 95.373ZM383.367 212.804C382.013 205.059 380.64 197.428 379.443 190.859L382.341 191.722L383.367 212.804ZM379.867 140.919L375.281 139.919C375.324 138.491 375.38 137.035 375.453 135.558L376.222 134.773C377.549 136.758 378.784 138.77 379.861 140.801L379.867 140.919ZM315.934 140.652L316.052 140.579C316.02 140.604 315.981 140.628 315.934 140.652Z" fill="#F4F9FD"/>
<path fill-rule="evenodd" clip-rule="evenodd" d="M162.104 231C161.629 231 161.234 230.623 161.21 230.139L152.001 38.9485C151.977 38.4497 152.359 38.0258 152.853 38.0008C153.327 37.9799 153.765 38.3609 153.79 38.8617L162.999 230.051C163.023 230.55 162.642 230.975 162.148 230.999L162.104 231Z" fill="#3F8CFF"/>
<path fill-rule="evenodd" clip-rule="evenodd" d="M310.103 231C309.629 231 309.234 230.623 309.21 230.139L300.001 38.9485C299.977 38.4497 300.358 38.0258 300.852 38.0008C301.319 37.9799 301.764 38.3609 301.79 38.8617L310.999 230.051C311.023 230.55 310.641 230.975 310.147 230.999L310.103 231Z" fill="#3F8CFF"/>
<path fill-rule="evenodd" clip-rule="evenodd" d="M236.104 231C235.629 231 235.234 230.623 235.21 230.139L226.001 38.9485C225.977 38.4497 226.358 38.0258 226.853 38.0008C227.34 37.9799 227.765 38.3619 227.79 38.8617L236.999 230.051C237.023 230.55 236.641 230.975 236.147 230.999L236.104 231Z" fill="#3F8CFF"/>
<path fill-rule="evenodd" clip-rule="evenodd" d="M367.093 59H88.9072C88.4061 59 88 58.5524 88 58C88 57.4476 88.4061 57 88.9072 57H367.093C367.594 57 368 57.4476 368 58C368 58.5524 367.594 59 367.093 59Z" fill="#3F8CFF"/>
<path fill-rule="evenodd" clip-rule="evenodd" d="M114.857 131.024C112.073 114.328 110.902 95.652 111.006 81.821L153.282 80.189L155.65 128.825L114.857 131.024ZM157.462 128.727L155.096 80.119L158.188 80C158.732 95.078 160.592 111.415 163.15 128.421L157.462 128.727Z" fill="#DADFE4"/>
<path fill-rule="evenodd" clip-rule="evenodd" d="M156.266 129L154 80.0704L155.736 80L158 128.901L156.266 129Z" fill="#B0C9DF"/>
<path fill-rule="evenodd" clip-rule="evenodd" d="M164 126.397L115.939 129C113.168 112.312 111.439 96.1381 111 80.6037L159.062 78C159.602 93.0716 161.453 109.401 164 126.397Z" fill="#12499A"/>
<path fill-rule="evenodd" clip-rule="evenodd" d="M224.998 146L176 143.074L176.002 95L225 97.9257L224.998 146Z" fill="#DADFE4"/>
<path fill-rule="evenodd" clip-rule="evenodd" d="M223.43 145L175 142.091L175.57 94L224 96.9082L223.43 145Z" fill="#FFFFFE"/>
<path fill-rule="evenodd" clip-rule="evenodd" d="M309.934 135.531C309.964 134.761 309.991 133.998 310.014 133.244L318.324 132.816C318.874 127.716 318.523 121.132 317.645 113.68C318.869 122.148 319.593 130.323 319.064 135.232L309.934 135.531ZM269.292 110.957L268.918 110.899C268.107 104.65 266.986 98.1141 265.535 91.4121C267.013 98.1541 268.303 104.708 269.292 110.957Z" fill="#DADFE4"/>
<path fill-rule="evenodd" clip-rule="evenodd" d="M271.719 135L318.736 132.575C319.942 121.364 316.822 103.006 313.309 84L265 87.0755C269.026 104.857 271.93 121.503 271.719 135Z" fill="#6D5DD3"/>
<path fill-rule="evenodd" clip-rule="evenodd" d="M137.554 211.401C136.176 197.946 135.968 182.069 131 164.551L157.622 161.388L159.946 209.125L137.554 211.401ZM161.754 208.941L159.429 161.173L177.717 159C181.162 168.833 186.972 195.069 187.1 206.366L161.754 208.941Z" fill="#DADFE4"/>
<path fill-rule="evenodd" clip-rule="evenodd" d="M160.25 209L158 161.215L159.749 161L162 208.816L160.25 209Z" fill="#B0C9DF"/>
<path fill-rule="evenodd" clip-rule="evenodd" d="M139.153 210L186.943 204.843C187.534 193.669 183.432 175.645 178.905 157L131 162.652C134.879 180.103 138.63 196.615 139.153 210Z" fill="#FDC748"/>
<path fill-rule="evenodd" clip-rule="evenodd" d="M306.088 166.388L258 157.37C261.146 144.436 263.079 127.978 262.982 110L269.067 110.953C270.291 120.379 270.809 129.155 270.688 136.873L294.895 136.082C295.509 136.919 296.106 137.664 296.755 138.422C297.464 139.255 298.185 140.084 298.948 140.88C300.475 142.471 302.116 143.983 303.94 145.393C304.321 145.68 304.709 145.965 305.107 146.246L306.088 166.388ZM307.633 160.817L306.983 147.474C307.696 147.902 308.445 148.306 309.246 148.675C308.84 153.106 308.307 157.309 307.633 160.817ZM309.913 139.292C309.414 139.062 308.912 138.811 308.413 138.545C307.774 138.21 307.135 137.852 306.496 137.474L306.41 135.705L310.083 135.585C310.035 136.806 309.978 138.046 309.913 139.292ZM304.623 136.316C304.354 136.143 304.085 135.967 303.816 135.79L304.596 135.764L304.623 136.316Z" fill="#DADFE4"/>
<path fill-rule="evenodd" clip-rule="evenodd" d="M306.624 166.708L306.492 166.683L305.511 146.541C306.112 146.964 306.734 147.377 307.387 147.769L308.037 161.112C307.621 163.279 307.151 165.18 306.624 166.708ZM306.9 137.769C306.275 137.399 305.65 137.012 305.027 136.611L305 136.059L306.814 136L306.9 137.769Z" fill="#B0C9DF"/>
<path fill-rule="evenodd" clip-rule="evenodd" d="M270.621 136.92C270.742 129.202 270.224 120.426 269 111L269.374 111.058C270.768 119.858 271.565 128.054 271.451 135.333L296.564 134.041L294.628 135.854C294.695 135.947 294.761 136.038 294.828 136.129L270.621 136.92ZM303.749 135.837C303.633 135.76 303.517 135.683 303.402 135.606C302.537 135.046 301.671 134.438 300.821 133.822L304.423 133.637L304.529 135.811L303.749 135.837ZM306.343 135.752L306.236 133.543L310.096 133.345C310.073 134.099 310.046 134.862 310.016 135.632L306.343 135.752Z" fill="#719CC6"/>
<path fill-rule="evenodd" clip-rule="evenodd" d="M304.11 135L304 133.083L305.889 133L306 134.948L304.11 135Z" fill="#83A9CE"/>
<path fill-rule="evenodd" clip-rule="evenodd" d="M271.085 135C271.199 127.803 270.399 119.7 269 111L309.785 117.29C310.03 120.855 310.074 126.612 309.872 133.035L305.998 133.23L304.178 133.323L300.563 133.506C299.794 132.956 299.038 132.401 298.305 131.864L296.29 133.723L271.085 135Z" fill="#3769A4"/>
<path fill-rule="evenodd" clip-rule="evenodd" d="M259 155.164L305.784 163C309.406 152.567 310.326 134.382 311 115.494L262.805 108C262.902 125.83 262.141 142.336 259 155.164Z" fill="#FFFFFE"/>
<path fill-rule="evenodd" clip-rule="evenodd" d="M372.861 112C373.807 113.013 374.605 113.911 375.421 114.898C376.233 115.862 377.024 116.838 377.803 117.828C379.355 119.808 380.841 121.847 382.246 123.96C383.637 126.088 385.007 128.236 386.221 130.526C387.456 132.803 388.614 135.146 389.563 137.668L389.928 138.604L390.019 138.842L390.133 139.186L390.351 139.877C390.466 140.315 390.561 140.739 390.647 141.158C390.711 141.557 390.785 141.967 390.832 142.353C391.01 143.899 391.022 145.31 390.979 146.675C390.899 149.397 390.537 151.951 390.121 154.461C389.232 159.477 387.959 164.241 386.308 169L381.111 167.788C381.497 163.058 381.851 158.236 381.98 153.592C382.059 151.274 382.025 148.972 381.874 146.837C381.794 145.773 381.652 144.755 381.453 143.903L381.303 143.308L381.138 142.83L380.576 141.668C378.686 137.777 376.183 133.949 373.517 130.237C372.177 128.379 370.767 126.554 369.342 124.742C368.632 123.835 367.905 122.938 367.169 122.057L365 119.488L372.861 112Z" fill="#BE5B52"/>
<path fill-rule="evenodd" clip-rule="evenodd" d="M381.714 166L378 169.86L385.247 174C385.247 174 387.754 170.772 386.772 167.472L381.714 166Z" fill="#BD5B52"/>
<path fill-rule="evenodd" clip-rule="evenodd" d="M373 175.631L380.017 178L385 174.089L377.795 170L373 175.631Z" fill="#BD5B52"/>
<path fill-rule="evenodd" clip-rule="evenodd" d="M392.973 192L347 181.973C349.454 165.844 352.73 150.46 357.027 136L403 146.026C398.94 160.086 395.731 175.645 392.973 192Z" fill="#3769A4"/>
<path fill-rule="evenodd" clip-rule="evenodd" d="M386.691 193L342 179.691L355.309 135L400 148.308L386.691 193Z" fill="#FFFFFE"/>
<path fill-rule="evenodd" clip-rule="evenodd" d="M345.998 82.0276C345.976 82.5798 345.735 83.0148 345.459 82.9996C345.184 82.9863 344.979 82.5265 345.002 81.9743C345.024 81.4221 345.265 80.9861 345.541 81.0003C345.816 81.0156 346.021 81.4754 345.998 82.0276Z" fill="#132529"/>
<path fill-rule="evenodd" clip-rule="evenodd" d="M346 83C346 83 344.52 86.5622 343 88.2449C343.964 89.3259 345.71 88.9288 345.71 88.9288L346 83Z" fill="#A92D2F"/>
<path fill-rule="evenodd" clip-rule="evenodd" d="M348.743 78.9971L348.933 78.9052C349.038 78.7981 349.017 78.6432 348.888 78.5586C347.589 77.7171 346.265 78.0716 346.208 78.0876C346.05 78.1317 345.964 78.2721 346.015 78.4009C346.067 78.5289 346.238 78.5969 346.394 78.5543C346.437 78.5434 347.475 78.2764 348.51 78.9471C348.578 78.9913 348.662 79.0072 348.743 78.9971Z" fill="#132529"/>
<path fill-rule="evenodd" clip-rule="evenodd" d="M364.166 91C363.059 96.1634 362.338 103.316 366 106.762C366 106.762 364.483 112 354.637 112C343.81 112 349.488 107.404 349.488 107.404C354.006 106.042 354.034 101.047 353.056 97.0355L364.166 91Z" fill="#BD5B52"/>
<path fill-rule="evenodd" clip-rule="evenodd" d="M340.089 353.338C339.969 353.338 339.858 353.349 339.759 353.377C339.601 353.419 339.491 353.497 339.422 353.615C339.299 353.826 339.341 353.931 339.384 353.992C339.713 354.457 341.532 354.468 342.872 354.278C342.209 353.936 340.93 353.338 340.089 353.338ZM341.212 354.733C340.289 354.733 339.398 354.605 339.105 354.191C339.002 354.046 338.923 353.799 339.129 353.446C339.244 353.248 339.427 353.114 339.674 353.048C340.875 352.721 343.372 354.155 343.477 354.216L343.559 354.391L343.422 354.531C342.962 354.623 342.072 354.733 341.212 354.733Z" fill="#3769A4"/>
<path fill-rule="evenodd" clip-rule="evenodd" d="M341.781 351.341L341.679 351.347C341.372 351.377 341.35 351.498 341.344 351.538C341.259 352.026 342.412 353.249 343.291 353.781C343.206 353.216 342.965 352.056 342.37 351.563C342.191 351.414 341.997 351.341 341.781 351.341ZM343.499 354.258L343.43 354.243C342.566 353.854 340.866 352.297 341.008 351.484C341.041 351.292 341.18 351.055 341.649 351.007C341.999 350.972 342.313 351.07 342.59 351.3C343.495 352.051 343.664 353.989 343.671 354.071L343.599 354.226L343.499 354.258Z" fill="#3769A4"/>
<path fill-rule="evenodd" clip-rule="evenodd" d="M352 354H344.524L344 337H351.477L352 354Z" fill="#BD5B52"/>
<path fill-rule="evenodd" clip-rule="evenodd" d="M344.287 353H352.054C352.345 353 352.594 353.2 352.653 353.481L353.977 359.736C354.115 360.384 353.609 360.998 352.938 360.986C350.137 360.939 346.09 360.777 342.57 360.777C338.452 360.777 335.855 361 331.026 361C328.107 361 327.334 358.079 328.559 357.815C334.139 356.61 337.722 356.482 342.568 353.549C343.094 353.23 343.674 353 344.287 353Z" fill="#0A1629"/>
<path fill-rule="evenodd" clip-rule="evenodd" d="M369.224 108C376.22 108.073 386 125.276 386 125.276L375.157 136C375.157 136 368.05 132.792 364.101 124.966C359.965 116.766 362.071 107.926 369.224 108Z" fill="#3769A4"/>
<path fill-rule="evenodd" clip-rule="evenodd" d="M375.376 136C375.619 130.863 376.053 125.456 376.772 119.965C376.84 119.448 376.873 118.935 376.874 118.428C376.875 114.551 374.961 111.044 372 109C378.153 112.751 385 125.737 385 125.737L383.493 127.343L375.376 136Z" fill="#3A81EB"/>
<path fill-rule="evenodd" clip-rule="evenodd" d="M336.443 115.018C334.885 122.739 333.767 138.595 337.603 170H375.798C376.091 164.912 373.636 142.71 376.896 118.872C377.776 112.438 372.959 106.617 366.481 106.26C366.341 106.252 366.202 106.245 366.062 106.238C361.186 106.003 354.122 105.848 349.826 106.239C348.033 106.402 346.271 106.661 344.701 106.938C340.552 107.672 337.277 110.886 336.443 115.018Z" fill="#3769A4"/>
<path fill-rule="evenodd" clip-rule="evenodd" d="M376.094 170.43H337.608C336.159 158.574 335.411 148.921 335.126 141.074C338.998 140.097 343.394 136.67 344.914 132.451C348.374 128.946 352.691 123.406 353.097 117.287C353.119 116.953 353.13 116.622 353.13 116.294C353.128 111.202 350.475 106.892 345.886 106.892C345.166 106.892 344.399 106.998 343.587 107.224C343.969 107.109 344.361 107.016 344.76 106.945C346.342 106.666 348.117 106.405 349.924 106.241C351.834 106.067 354.286 106 356.853 106C360.103 106 363.538 106.108 366.284 106.24C366.425 106.247 366.565 106.254 366.706 106.262C372.717 106.594 377.308 111.59 377.305 117.436C377.304 117.938 377.27 118.447 377.2 118.959C375.856 128.779 375.476 138.322 375.476 146.523C375.476 157.189 376.119 165.583 376.119 169.355C376.119 169.77 376.111 170.13 376.094 170.43ZM335.07 139.367C335.036 138.203 335.013 137.082 335 136C335.033 135.965 335.067 135.93 335.101 135.895C335.042 136.97 335.04 138.129 335.07 139.367Z" fill="#3F8CFF"/>
<path fill-rule="evenodd" clip-rule="evenodd" d="M334.529 142C334.506 141.316 334.486 140.648 334.473 140C334.489 140.655 334.508 141.323 334.529 142Z" fill="#9AA9B8"/>
<path fill-rule="evenodd" clip-rule="evenodd" d="M335.076 142C335.055 141.397 335.036 140.802 335.019 140.218C334.989 138.926 334.991 137.717 335.051 136.595C335.336 136.29 335.62 135.983 335.901 135.674C336.155 135.396 336.408 135.118 336.66 134.837L340.567 137.042C340.567 137.042 342.576 135.529 345 133C343.459 137.403 339.002 140.98 335.076 142Z" fill="#3576D6"/>
<path fill-rule="evenodd" clip-rule="evenodd" d="M351.198 345.589H351.195L350.936 337H350.94L351.198 345.589Z" fill="#BEBFBB"/>
<path fill-rule="evenodd" clip-rule="evenodd" d="M351 346H344.242V345.984L344 337H350.757L351 346Z" fill="#914642"/>
<path fill-rule="evenodd" clip-rule="evenodd" d="M365.931 81.7904C365.105 88.8503 364.987 93.0176 361.157 96.5053C355.398 101.75 346.699 98.1547 345.366 91.0224C344.167 84.6025 345.719 74.1374 352.91 71.6026C359.996 69.1056 366.758 74.7316 365.931 81.7904Z" fill="#BD5B52"/>
<path fill-rule="evenodd" clip-rule="evenodd" d="M351.07 84.3181C348.856 84.8133 347.854 79.6555 350.109 77.6748C348.104 76.6844 345.203 75.2503 344.237 73.0943C343.126 70.6184 346.141 67.6473 348.731 67.7711C347.895 66.1201 349.749 61.7021 355.028 63.3699C360.43 65.0753 362.807 67.6057 362.807 67.6057C362.807 67.6057 364.551 61.8843 368.227 66.5054C371.492 70.6124 370.2 74.1203 370.2 74.1203C370.2 74.1203 375.046 78.6651 373.793 82.0482C372.54 85.4323 369.783 86.6287 369.783 86.6287C369.783 86.6287 370.516 94.5813 364.62 96.4918C358.726 98.4032 355.014 94.4694 355.506 92.1995C351.696 92.4065 347.812 87.3715 351.07 84.3181Z" fill="#233862"/>
<path fill-rule="evenodd" clip-rule="evenodd" d="M353.965 84.2888C353.714 86.2465 352.688 88.0436 351.522 89.1894C349.77 90.9125 348.149 89.6799 348.013 87.4474C347.889 85.4379 348.654 82.1197 350.713 81.2339C352.741 80.3618 354.251 82.0499 353.965 84.2888Z" fill="#BD5B52"/>
<path fill-rule="evenodd" clip-rule="evenodd" d="M413 344.678L406.484 347L400 330.323L406.516 328L413 344.678Z" fill="#BD5B52"/>
<path fill-rule="evenodd" clip-rule="evenodd" d="M401.695 347.404C401.601 347.479 401.521 347.558 401.46 347.64C401.362 347.771 401.324 347.9 401.343 348.035C401.377 348.277 401.475 348.334 401.546 348.355C402.092 348.517 403.528 347.401 404.464 346.424C403.731 346.565 402.356 346.885 401.695 347.404ZM403.441 347.807C402.715 348.378 401.937 348.828 401.449 348.684C401.279 348.634 401.064 348.488 401.008 348.084C400.976 347.858 401.037 347.638 401.19 347.434C401.933 346.435 404.781 346.018 404.902 346L405.074 346.088L405.053 346.282C404.748 346.639 404.117 347.275 403.441 347.807Z" fill="#3769A4"/>
<path fill-rule="evenodd" clip-rule="evenodd" d="M401.583 345.533L401.506 345.601C401.284 345.815 401.342 345.923 401.361 345.958C401.596 346.395 403.259 346.643 404.279 346.518C403.862 346.125 402.955 345.363 402.183 345.344C401.951 345.337 401.753 345.4 401.583 345.533ZM404.737 346.764L404.673 346.795C403.754 347.023 401.455 346.851 401.064 346.123C400.972 345.952 400.934 345.68 401.273 345.353C401.526 345.108 401.834 344.991 402.193 345C403.37 345.031 404.701 346.45 404.757 346.511L404.796 346.677L404.737 346.764Z" fill="#3769A4"/>
<path fill-rule="evenodd" clip-rule="evenodd" d="M405.51 344.89L411.58 340.136C411.807 339.957 412.135 339.955 412.369 340.129L417.586 344.006C418.126 344.409 418.142 345.179 417.61 345.581C415.39 347.261 411.106 350.7 408.489 353.016C405.429 355.724 407.811 353.913 404.223 357.089C402.053 359.009 399.399 357.449 400.121 356.455C403.409 351.932 404.109 349.24 404.533 346.354C404.619 345.766 405.031 345.266 405.51 344.89Z" fill="#0A1629"/>
<path fill-rule="evenodd" clip-rule="evenodd" d="M300 132.815L297.314 127L290 131.552C290 131.552 292.41 136.504 297.4 135.958L300 132.815Z" fill="#BD5B52"/>
<path fill-rule="evenodd" clip-rule="evenodd" d="M290.626 125.599L288.876 127.077C287.74 128.035 287.704 129.746 288.796 130.751L290.155 132L298 127.248L293.293 125.21C292.402 124.826 291.364 124.976 290.626 125.599Z" fill="#BD5B52"/>
<path fill-rule="evenodd" clip-rule="evenodd" d="M409.499 337.331L407.826 333.001L407.829 333L409.502 337.33L409.499 337.331Z" fill="#BEBFBB"/>
<path fill-rule="evenodd" clip-rule="evenodd" d="M403.637 340.269L403.516 339.987L402.142 336.775L408.255 333.072L410.182 337.573L403.637 340.269Z" fill="#914642"/>
<path fill-rule="evenodd" clip-rule="evenodd" d="M351 170C351 170 363.066 225.417 367.681 245.988C372.735 268.516 399.326 337 399.326 337L411 330.687C411 330.687 398.512 276.957 389.384 247.646C386.074 223.417 375.955 170 375.955 170H351Z" fill="#0A1629"/>
<path fill-rule="evenodd" clip-rule="evenodd" d="M396 334.4L398.418 339L413 333.484L411.84 329L396 334.4Z" fill="#3F8CFF"/>
<path fill-rule="evenodd" clip-rule="evenodd" d="M367.614 248C367.539 247.657 367.461 247.324 367.385 247C367.387 247.001 367.388 247.001 367.39 247.002C367.461 247.3 367.536 247.606 367.615 247.919C367.614 247.946 367.614 247.974 367.614 248Z" fill="#A0A29F"/>
<path fill-rule="evenodd" clip-rule="evenodd" d="M367.569 247.795C367.569 247.795 367.566 247.794 367.564 247.793C367.519 247.593 367.474 247.397 367.432 247.205H367.434C367.478 247.398 367.522 247.595 367.569 247.795Z" fill="#939692"/>
<path fill-rule="evenodd" clip-rule="evenodd" d="M367.905 247H367.904C367.898 246.974 367.892 246.946 367.887 246.92C367.642 245.717 367.379 244.406 367.094 243H367.097C367.38 244.406 367.646 245.719 367.89 246.923C367.895 246.948 367.9 246.975 367.905 247Z" fill="#1D5697"/>
<path fill-rule="evenodd" clip-rule="evenodd" d="M367 243H366.998C366.69 241.457 366.355 239.781 366 238C366.355 239.782 366.69 241.456 367 243Z" fill="#8593A0"/>
<path fill-rule="evenodd" clip-rule="evenodd" d="M367.985 248C367.909 247.678 367.837 247.363 367.768 247.056C367.723 246.855 367.679 246.657 367.637 246.463C367.633 246.44 367.627 246.416 367.622 246.393C367.386 245.297 367.129 244.102 366.856 242.822C366.502 241.174 366.121 239.386 365.716 237.484C363.213 225.707 359.829 209.617 357 196.14C357.28 196.045 357.581 196 357.896 196C358.062 196 358.232 196.012 358.405 196.037C367.146 197.247 368.144 229.19 367.985 248Z" fill="black"/>
<path fill-rule="evenodd" clip-rule="evenodd" d="M337.621 170C337.621 170 334.552 223.707 335.056 245.613C335.579 268.397 342.009 343 342.009 343H354.237C354.237 343 356.236 269.728 357.068 247.351C357.976 222.957 363 170 363 170H337.621Z" fill="#0A1629"/>
<path fill-rule="evenodd" clip-rule="evenodd" d="M339 339L339.627 344H354.538L355 339.538L339 339Z" fill="#3F8CFF"/>
<path fill-rule="evenodd" clip-rule="evenodd" d="M348 119.367C346.343 122.325 344.444 125.126 342.448 127.827C340.425 130.509 338.241 133.047 335.948 135.455C333.662 137.871 331.257 140.15 328.789 142.314C326.355 144.48 323.729 146.546 321.408 148.441L320.584 149.112L319.911 149.354C318.117 149.993 316.294 150.103 314.734 149.921C313.163 149.743 311.79 149.336 310.554 148.851C308.083 147.866 306.094 146.546 304.252 145.171C302.427 143.771 300.784 142.271 299.256 140.692C298.493 139.902 297.771 139.079 297.062 138.253C296.342 137.419 295.687 136.602 295 135.658L298.947 131.993C300.487 133.128 302.134 134.355 303.781 135.412C305.42 136.497 307.076 137.516 308.728 138.375C310.366 139.24 312.038 139.941 313.501 140.3C314.229 140.484 314.895 140.555 315.396 140.527C315.905 140.494 316.199 140.386 316.346 140.274L314.85 141.187C317.292 138.918 319.501 136.9 321.705 134.764C323.885 132.639 325.976 130.465 327.972 128.23C329.951 125.982 331.861 123.695 333.618 121.319C335.394 118.954 336.99 116.488 338.522 114L348 119.367Z" fill="#BE5B52"/>
<path fill-rule="evenodd" clip-rule="evenodd" d="M352.967 117.242C352.281 127.438 340.409 136 340.409 136L325 127.677C325 127.677 330.676 115.662 338.321 109.99C347.766 102.984 353.489 109.482 352.967 117.242Z" fill="#3769A4"/>
<path fill-rule="evenodd" clip-rule="evenodd" d="M340.409 136L326.812 128.656L325 127.677C325 127.677 330.676 115.662 338.321 109.99C341.157 107.887 343.658 107 345.754 107C350.344 107 352.998 111.247 353 116.264C353 116.587 352.989 116.913 352.967 117.242C352.281 127.439 340.409 136 340.409 136Z" fill="#3F8CFF"/>
</g>
</g>
<path d="M105.54 52.12C104.947 52.12 104.427 51.96 103.98 51.64C103.533 51.32 103.183 50.87 102.93 50.29C102.683 49.71 102.56 49.0367 102.56 48.27C102.56 47.4967 102.683 46.8233 102.93 46.25C103.177 45.6767 103.523 45.23 103.97 44.91C104.417 44.59 104.937 44.43 105.53 44.43C106.137 44.43 106.66 44.59 107.1 44.91C107.547 45.23 107.897 45.68 108.15 46.26C108.403 46.8333 108.53 47.5033 108.53 48.27C108.53 49.0367 108.403 49.71 108.15 50.29C107.903 50.8633 107.557 51.3133 107.11 51.64C106.663 51.96 106.14 52.12 105.54 52.12ZM105.55 50.88C105.89 50.88 106.18 50.7767 106.42 50.57C106.66 50.3567 106.843 50.0567 106.97 49.67C107.103 49.2767 107.17 48.81 107.17 48.27C107.17 47.73 107.103 47.2667 106.97 46.88C106.843 46.4867 106.657 46.1867 106.41 45.98C106.17 45.7733 105.877 45.67 105.53 45.67C105.197 45.67 104.91 45.7733 104.67 45.98C104.43 46.1867 104.243 46.4867 104.11 46.88C103.983 47.2667 103.92 47.73 103.92 48.27C103.92 48.8033 103.983 49.2667 104.11 49.66C104.243 50.0467 104.43 50.3467 104.67 50.56C104.917 50.7733 105.21 50.88 105.55 50.88ZM112.24 52.12C111.7 52.12 111.23 52.02 110.83 51.82C110.437 51.6133 110.13 51.3367 109.91 50.99C109.697 50.6433 109.59 50.2633 109.59 49.85C109.59 49.3633 109.72 48.9533 109.98 48.62C110.24 48.28 110.617 48.03 111.11 47.87L111.03 48.2C110.677 48.0867 110.397 47.8667 110.19 47.54C109.99 47.2133 109.89 46.8533 109.89 46.46C109.89 46.0667 109.99 45.7167 110.19 45.41C110.39 45.1033 110.667 44.8633 111.02 44.69C111.373 44.5167 111.78 44.43 112.24 44.43C112.693 44.43 113.093 44.5167 113.44 44.69C113.793 44.8633 114.07 45.1033 114.27 45.41C114.477 45.7167 114.58 46.0667 114.58 46.46C114.58 46.86 114.477 47.2233 114.27 47.55C114.07 47.87 113.793 48.09 113.44 48.21L113.37 47.86C113.863 48.0333 114.24 48.29 114.5 48.63C114.76 48.9633 114.89 49.3733 114.89 49.86C114.89 50.2733 114.78 50.6533 114.56 51C114.347 51.34 114.04 51.6133 113.64 51.82C113.247 52.02 112.78 52.12 112.24 52.12ZM112.24 50.97C112.5 50.97 112.727 50.9233 112.92 50.83C113.113 50.73 113.263 50.5933 113.37 50.42C113.477 50.24 113.53 50.0367 113.53 49.81C113.53 49.5767 113.477 49.3767 113.37 49.21C113.263 49.0367 113.113 48.9033 112.92 48.81C112.727 48.71 112.5 48.66 112.24 48.66C111.98 48.66 111.753 48.71 111.56 48.81C111.373 48.9033 111.227 49.0367 111.12 49.21C111.013 49.3767 110.96 49.5767 110.96 49.81C110.96 50.0367 111.013 50.24 111.12 50.42C111.227 50.5933 111.373 50.73 111.56 50.83C111.753 50.9233 111.98 50.97 112.24 50.97ZM112.24 47.51C112.433 47.51 112.603 47.4667 112.75 47.38C112.897 47.2933 113.01 47.18 113.09 47.04C113.177 46.8933 113.22 46.7267 113.22 46.54C113.22 46.3533 113.177 46.19 113.09 46.05C113.01 45.9033 112.897 45.79 112.75 45.71C112.603 45.6233 112.433 45.58 112.24 45.58C112.047 45.58 111.873 45.6233 111.72 45.71C111.573 45.79 111.457 45.9033 111.37 46.05C111.29 46.19 111.25 46.3533 111.25 46.54C111.25 46.7267 111.29 46.8933 111.37 47.04C111.457 47.18 111.573 47.2933 111.72 47.38C111.873 47.4667 112.047 47.51 112.24 47.51ZM116.628 52V50.6H117.948V52H116.628ZM116.628 47.96V46.56H117.948V47.96H116.628ZM122.718 52.12C122.124 52.12 121.604 51.96 121.158 51.64C120.711 51.32 120.361 50.87 120.108 50.29C119.861 49.71 119.738 49.0367 119.738 48.27C119.738 47.4967 119.861 46.8233 120.108 46.25C120.354 45.6767 120.701 45.23 121.148 44.91C121.594 44.59 122.114 44.43 122.708 44.43C123.314 44.43 123.838 44.59 124.278 44.91C124.724 45.23 125.074 45.68 125.328 46.26C125.581 46.8333 125.708 47.5033 125.708 48.27C125.708 49.0367 125.581 49.71 125.328 50.29C125.081 50.8633 124.734 51.3133 124.288 51.64C123.841 51.96 123.318 52.12 122.718 52.12ZM122.728 50.88C123.068 50.88 123.358 50.7767 123.598 50.57C123.838 50.3567 124.021 50.0567 124.148 49.67C124.281 49.2767 124.348 48.81 124.348 48.27C124.348 47.73 124.281 47.2667 124.148 46.88C124.021 46.4867 123.834 46.1867 123.588 45.98C123.348 45.7733 123.054 45.67 122.708 45.67C122.374 45.67 122.088 45.7733 121.848 45.98C121.608 46.1867 121.421 46.4867 121.288 46.88C121.161 47.2667 121.098 47.73 121.098 48.27C121.098 48.8033 121.161 49.2667 121.288 49.66C121.421 50.0467 121.608 50.3467 121.848 50.56C122.094 50.7733 122.388 50.88 122.728 50.88ZM129.798 52.12C129.204 52.12 128.684 51.96 128.238 51.64C127.791 51.32 127.441 50.87 127.188 50.29C126.941 49.71 126.818 49.0367 126.818 48.27C126.818 47.4967 126.941 46.8233 127.188 46.25C127.434 45.6767 127.781 45.23 128.228 44.91C128.674 44.59 129.194 44.43 129.788 44.43C130.394 44.43 130.918 44.59 131.358 44.91C131.804 45.23 132.154 45.68 132.408 46.26C132.661 46.8333 132.788 47.5033 132.788 48.27C132.788 49.0367 132.661 49.71 132.408 50.29C132.161 50.8633 131.814 51.3133 131.368 51.64C130.921 51.96 130.398 52.12 129.798 52.12ZM129.808 50.88C130.148 50.88 130.438 50.7767 130.678 50.57C130.918 50.3567 131.101 50.0567 131.228 49.67C131.361 49.2767 131.428 48.81 131.428 48.27C131.428 47.73 131.361 47.2667 131.228 46.88C131.101 46.4867 130.914 46.1867 130.668 45.98C130.428 45.7733 130.134 45.67 129.788 45.67C129.454 45.67 129.168 45.7733 128.928 45.98C128.688 46.1867 128.501 46.4867 128.368 46.88C128.241 47.2667 128.178 47.73 128.178 48.27C128.178 48.8033 128.241 49.2667 128.368 49.66C128.501 50.0467 128.688 50.3467 128.928 50.56C129.174 50.7733 129.468 50.88 129.808 50.88Z" fill="#3C82EC"/>
<path d="M176.54 52.12C175.947 52.12 175.427 51.96 174.98 51.64C174.533 51.32 174.183 50.87 173.93 50.29C173.683 49.71 173.56 49.0367 173.56 48.27C173.56 47.4967 173.683 46.8233 173.93 46.25C174.177 45.6767 174.523 45.23 174.97 44.91C175.417 44.59 175.937 44.43 176.53 44.43C177.137 44.43 177.66 44.59 178.1 44.91C178.547 45.23 178.897 45.68 179.15 46.26C179.403 46.8333 179.53 47.5033 179.53 48.27C179.53 49.0367 179.403 49.71 179.15 50.29C178.903 50.8633 178.557 51.3133 178.11 51.64C177.663 51.96 177.14 52.12 176.54 52.12ZM176.55 50.88C176.89 50.88 177.18 50.7767 177.42 50.57C177.66 50.3567 177.843 50.0567 177.97 49.67C178.103 49.2767 178.17 48.81 178.17 48.27C178.17 47.73 178.103 47.2667 177.97 46.88C177.843 46.4867 177.657 46.1867 177.41 45.98C177.17 45.7733 176.877 45.67 176.53 45.67C176.197 45.67 175.91 45.7733 175.67 45.98C175.43 46.1867 175.243 46.4867 175.11 46.88C174.983 47.2667 174.92 47.73 174.92 48.27C174.92 48.8033 174.983 49.2667 175.11 49.66C175.243 50.0467 175.43 50.3467 175.67 50.56C175.917 50.7733 176.21 50.88 176.55 50.88ZM181.02 52L183.55 48.74L183.78 48.98C183.68 49.0533 183.583 49.1133 183.49 49.16C183.397 49.2067 183.297 49.24 183.19 49.26C183.083 49.28 182.97 49.29 182.85 49.29C182.397 49.29 181.993 49.1867 181.64 48.98C181.287 48.7733 181.007 48.4933 180.8 48.14C180.6 47.78 180.5 47.3733 180.5 46.92C180.5 46.44 180.61 46.0133 180.83 45.64C181.057 45.2667 181.363 44.9733 181.75 44.76C182.143 44.54 182.59 44.43 183.09 44.43C183.597 44.43 184.043 44.5367 184.43 44.75C184.817 44.9633 185.12 45.2567 185.34 45.63C185.567 45.9967 185.68 46.42 185.68 46.9C185.68 47.14 185.653 47.38 185.6 47.62C185.547 47.86 185.45 48.1167 185.31 48.39C185.177 48.6567 184.983 48.96 184.73 49.3L182.65 52H181.02ZM183.09 48.15C183.323 48.15 183.53 48.1 183.71 48C183.897 47.8933 184.043 47.7467 184.15 47.56C184.257 47.3667 184.31 47.15 184.31 46.91C184.31 46.6567 184.253 46.4367 184.14 46.25C184.033 46.0633 183.89 45.9167 183.71 45.81C183.53 45.7033 183.323 45.65 183.09 45.65C182.863 45.65 182.657 45.7033 182.47 45.81C182.283 45.9167 182.133 46.0633 182.02 46.25C181.913 46.4367 181.86 46.6567 181.86 46.91C181.86 47.15 181.913 47.3667 182.02 47.56C182.133 47.7467 182.283 47.8933 182.47 48C182.657 48.1 182.863 48.15 183.09 48.15ZM187.326 52V50.6H188.646V52H187.326ZM187.326 47.96V46.56H188.646V47.96H187.326ZM192.805 52.12C192.398 52.12 192.012 52.0467 191.645 51.9C191.285 51.7467 190.975 51.5333 190.715 51.26C190.462 50.98 190.288 50.65 190.195 50.27L191.385 49.85C191.505 50.19 191.688 50.45 191.935 50.63C192.182 50.8033 192.472 50.89 192.805 50.89C193.072 50.89 193.302 50.84 193.495 50.74C193.695 50.64 193.852 50.4967 193.965 50.31C194.078 50.1167 194.135 49.89 194.135 49.63C194.135 49.37 194.078 49.15 193.965 48.97C193.858 48.7833 193.705 48.64 193.505 48.54C193.305 48.44 193.068 48.39 192.795 48.39C192.668 48.39 192.535 48.4033 192.395 48.43C192.262 48.4567 192.142 48.4967 192.035 48.55L191.725 47.9L193.655 45.7H190.615V44.55H195.185V45.62L193.245 47.89L193.265 47.38C193.712 47.3867 194.102 47.4833 194.435 47.67C194.768 47.8567 195.028 48.1133 195.215 48.44C195.402 48.7667 195.495 49.15 195.495 49.59C195.495 50.07 195.378 50.5033 195.145 50.89C194.912 51.27 194.592 51.57 194.185 51.79C193.778 52.01 193.318 52.12 192.805 52.12ZM199.528 52.12C198.935 52.12 198.415 51.96 197.968 51.64C197.522 51.32 197.172 50.87 196.918 50.29C196.672 49.71 196.548 49.0367 196.548 48.27C196.548 47.4967 196.672 46.8233 196.918 46.25C197.165 45.6767 197.512 45.23 197.958 44.91C198.405 44.59 198.925 44.43 199.518 44.43C200.125 44.43 200.648 44.59 201.088 44.91C201.535 45.23 201.885 45.68 202.138 46.26C202.392 46.8333 202.518 47.5033 202.518 48.27C202.518 49.0367 202.392 49.71 202.138 50.29C201.892 50.8633 201.545 51.3133 201.098 51.64C200.652 51.96 200.128 52.12 199.528 52.12ZM199.538 50.88C199.878 50.88 200.168 50.7767 200.408 50.57C200.648 50.3567 200.832 50.0567 200.958 49.67C201.092 49.2767 201.158 48.81 201.158 48.27C201.158 47.73 201.092 47.2667 200.958 46.88C200.832 46.4867 200.645 46.1867 200.398 45.98C200.158 45.7733 199.865 45.67 199.518 45.67C199.185 45.67 198.898 45.7733 198.658 45.98C198.418 46.1867 198.232 46.4867 198.098 46.88C197.972 47.2667 197.908 47.73 197.908 48.27C197.908 48.8033 197.972 49.2667 198.098 49.66C198.232 50.0467 198.418 50.3467 198.658 50.56C198.905 50.7733 199.198 50.88 199.538 50.88Z" fill="#3C82EC"/>
<path d="M251.73 52V45.71H250.29V44.55H253.09V52H251.73ZM255.763 52V45.71H254.323V44.55H257.123V52H255.763ZM259.296 52V50.6H260.616V52H259.296ZM259.296 47.96V46.56H260.616V47.96H259.296ZM265.386 52.12C264.792 52.12 264.272 51.96 263.826 51.64C263.379 51.32 263.029 50.87 262.776 50.29C262.529 49.71 262.406 49.0367 262.406 48.27C262.406 47.4967 262.529 46.8233 262.776 46.25C263.022 45.6767 263.369 45.23 263.816 44.91C264.262 44.59 264.782 44.43 265.376 44.43C265.982 44.43 266.506 44.59 266.946 44.91C267.392 45.23 267.742 45.68 267.996 46.26C268.249 46.8333 268.376 47.5033 268.376 48.27C268.376 49.0367 268.249 49.71 267.996 50.29C267.749 50.8633 267.402 51.3133 266.956 51.64C266.509 51.96 265.986 52.12 265.386 52.12ZM265.396 50.88C265.736 50.88 266.026 50.7767 266.266 50.57C266.506 50.3567 266.689 50.0567 266.816 49.67C266.949 49.2767 267.016 48.81 267.016 48.27C267.016 47.73 266.949 47.2667 266.816 46.88C266.689 46.4867 266.502 46.1867 266.256 45.98C266.016 45.7733 265.722 45.67 265.376 45.67C265.042 45.67 264.756 45.7733 264.516 45.98C264.276 46.1867 264.089 46.4867 263.956 46.88C263.829 47.2667 263.766 47.73 263.766 48.27C263.766 48.8033 263.829 49.2667 263.956 49.66C264.089 50.0467 264.276 50.3467 264.516 50.56C264.762 50.7733 265.056 50.88 265.396 50.88ZM272.466 52.12C271.872 52.12 271.352 51.96 270.906 51.64C270.459 51.32 270.109 50.87 269.856 50.29C269.609 49.71 269.486 49.0367 269.486 48.27C269.486 47.4967 269.609 46.8233 269.856 46.25C270.102 45.6767 270.449 45.23 270.896 44.91C271.342 44.59 271.862 44.43 272.456 44.43C273.062 44.43 273.586 44.59 274.026 44.91C274.472 45.23 274.822 45.68 275.076 46.26C275.329 46.8333 275.456 47.5033 275.456 48.27C275.456 49.0367 275.329 49.71 275.076 50.29C274.829 50.8633 274.482 51.3133 274.036 51.64C273.589 51.96 273.066 52.12 272.466 52.12ZM272.476 50.88C272.816 50.88 273.106 50.7767 273.346 50.57C273.586 50.3567 273.769 50.0567 273.896 49.67C274.029 49.2767 274.096 48.81 274.096 48.27C274.096 47.73 274.029 47.2667 273.896 46.88C273.769 46.4867 273.582 46.1867 273.336 45.98C273.096 45.7733 272.802 45.67 272.456 45.67C272.122 45.67 271.836 45.7733 271.596 45.98C271.356 46.1867 271.169 46.4867 271.036 46.88C270.909 47.2667 270.846 47.73 270.846 48.27C270.846 48.8033 270.909 49.2667 271.036 49.66C271.169 50.0467 271.356 50.3467 271.596 50.56C271.842 50.7733 272.136 50.88 272.476 50.88Z" fill="#3C82EC"/>
<path d="M324.73 52V45.71H323.29V44.55H326.09V52H324.73ZM327.493 52V50.97L329.513 48.86C329.913 48.44 330.22 48.1067 330.433 47.86C330.653 47.6067 330.807 47.39 330.893 47.21C330.98 47.03 331.023 46.8467 331.023 46.66C331.023 46.3467 330.923 46.1 330.723 45.92C330.53 45.74 330.28 45.65 329.973 45.65C329.653 45.65 329.377 45.7433 329.143 45.93C328.91 46.11 328.74 46.3767 328.633 46.73L327.443 46.36C327.523 45.9667 327.687 45.6267 327.933 45.34C328.18 45.0467 328.48 44.8233 328.833 44.67C329.193 44.51 329.573 44.43 329.973 44.43C330.453 44.43 330.873 44.5167 331.233 44.69C331.6 44.8633 331.883 45.1067 332.083 45.42C332.29 45.7333 332.393 46.1 332.393 46.52C332.393 46.7867 332.343 47.05 332.243 47.31C332.143 47.57 331.993 47.8367 331.793 48.11C331.593 48.3767 331.333 48.6767 331.013 49.01L329.263 50.85H332.493V52H327.493ZM334.23 52V50.6H335.55V52H334.23ZM334.23 47.96V46.56H335.55V47.96H334.23ZM339.709 52.12C339.303 52.12 338.916 52.0467 338.549 51.9C338.189 51.7467 337.879 51.5333 337.619 51.26C337.366 50.98 337.193 50.65 337.099 50.27L338.289 49.85C338.409 50.19 338.593 50.45 338.839 50.63C339.086 50.8033 339.376 50.89 339.709 50.89C339.976 50.89 340.206 50.84 340.399 50.74C340.599 50.64 340.756 50.4967 340.869 50.31C340.983 50.1167 341.039 49.89 341.039 49.63C341.039 49.37 340.983 49.15 340.869 48.97C340.763 48.7833 340.609 48.64 340.409 48.54C340.209 48.44 339.973 48.39 339.699 48.39C339.573 48.39 339.439 48.4033 339.299 48.43C339.166 48.4567 339.046 48.4967 338.939 48.55L338.629 47.9L340.559 45.7H337.519V44.55H342.089V45.62L340.149 47.89L340.169 47.38C340.616 47.3867 341.006 47.4833 341.339 47.67C341.673 47.8567 341.933 48.1133 342.119 48.44C342.306 48.7667 342.399 49.15 342.399 49.59C342.399 50.07 342.283 50.5033 342.049 50.89C341.816 51.27 341.496 51.57 341.089 51.79C340.683 52.01 340.223 52.12 339.709 52.12ZM346.433 52.12C345.839 52.12 345.319 51.96 344.873 51.64C344.426 51.32 344.076 50.87 343.823 50.29C343.576 49.71 343.453 49.0367 343.453 48.27C343.453 47.4967 343.576 46.8233 343.823 46.25C344.069 45.6767 344.416 45.23 344.863 44.91C345.309 44.59 345.829 44.43 346.423 44.43C347.029 44.43 347.553 44.59 347.993 44.91C348.439 45.23 348.789 45.68 349.043 46.26C349.296 46.8333 349.423 47.5033 349.423 48.27C349.423 49.0367 349.296 49.71 349.043 50.29C348.796 50.8633 348.449 51.3133 348.003 51.64C347.556 51.96 347.033 52.12 346.433 52.12ZM346.443 50.88C346.783 50.88 347.073 50.7767 347.313 50.57C347.553 50.3567 347.736 50.0567 347.863 49.67C347.996 49.2767 348.063 48.81 348.063 48.27C348.063 47.73 347.996 47.2667 347.863 46.88C347.736 46.4867 347.549 46.1867 347.303 45.98C347.063 45.7733 346.769 45.67 346.423 45.67C346.089 45.67 345.803 45.7733 345.563 45.98C345.323 46.1867 345.136 46.4867 345.003 46.88C344.876 47.2667 344.813 47.73 344.813 48.27C344.813 48.8033 344.876 49.2667 345.003 49.66C345.136 50.0467 345.323 50.3467 345.563 50.56C345.809 50.7733 346.103 50.88 346.443 50.88Z" fill="#3C82EC"/>
</g>
<defs>
<clipPath id="clip0_571_18846">
<rect width="500" height="373" fill="white"/>
</clipPath>
</defs>
</svg>
